<svg width="48" height="48" viewBox="0 0 48 48" fill="none" xmlns="http://www.w3.org/2000/svg">
<rect width="48" height="48" fill="#323238"/>
<path d="M33.5081 13.6732H14.7532C13.8939 13.6732 13.1956 14.3812 13.1956 15.2504V33.9711C13.1956 34.8402 13.8939 35.5482 14.7532 35.5482H33.5081C34.3675 35.5482 35.0706 34.8402 35.0706 33.9711V15.2504C35.0706 14.3812 34.3675 13.6732 33.5081 13.6732ZM19.8069 32.4232H16.5648V21.9838H19.8118V32.4232H19.8069ZM18.1859 20.558C17.1458 20.558 16.306 19.7133 16.306 18.6781C16.306 17.6429 17.1458 16.7982 18.1859 16.7982C19.221 16.7982 20.0657 17.6429 20.0657 18.6781C20.0657 19.7181 19.2259 20.558 18.1859 20.558V20.558ZM31.9603 32.4232H28.7181V27.3451C28.7181 26.1342 28.6937 24.5765 27.0335 24.5765C25.3441 24.5765 25.0853 25.8949 25.0853 27.2572V32.4232H21.8431V21.9838H24.9534V23.4095H24.9974C25.4319 22.5892 26.4915 21.725 28.0687 21.725C31.3499 21.725 31.9603 23.8881 31.9603 26.7006V32.4232V32.4232Z" fill="white"/>
</svg>
